<?xml version="1.0" encoding="UTF-8" standalone="no"?>
<!DOCTYPE svg PUBLIC "-//W3C//DTD SVG 1.1//EN"
 "http://www.w3.org/Graphics/SVG/1.1/DTD/svg11.dtd">
<!-- Generated by graphviz version 2.40.1 (20161225.0304)
 -->
<!-- Title: dependencies Pages: 1 -->
<svg width="1094pt" height="211pt"
 viewBox="0.00 0.00 1094.00 211.00" xmlns="http://www.w3.org/2000/svg" xmlns:xlink="http://www.w3.org/1999/xlink">
<g id="graph0" class="graph" transform="scale(1 1) rotate(0) translate(4 207)">
<title>dependencies</title>
<polygon fill="#ffffff" stroke="transparent" points="-4,4 -4,-207 1090,-207 1090,4 -4,4"/>
<text text-anchor="start" x="522.0091" y="-42.4" font-family="sans-serif" font-weight="bold" font-size="14.00" fill="#000000">Legend</text>
<polygon fill="#ffffb3" stroke="transparent" points="309,-10 309,-30 329,-30 329,-10 309,-10"/>
<text text-anchor="start" x="332.629" y="-15.4" font-family="sans-serif" font-size="14.00" fill="#000000"> &#160;Declarations</text>
<polygon fill="#8dd3c7" stroke="transparent" points="422,-10 422,-30 442,-30 442,-10 422,-10"/>
<text text-anchor="start" x="445.7251" y="-15.4" font-family="sans-serif" font-size="14.00" fill="#000000"> &#160;Module</text>
<polygon fill="#80b1d3" stroke="transparent" points="508,-10 508,-30 528,-30 528,-10 508,-10"/>
<text text-anchor="start" x="531.7812" y="-15.4" font-family="sans-serif" font-size="14.00" fill="#000000"> &#160;Bootstrap</text>
<polygon fill="#fdb462" stroke="transparent" points="605,-10 605,-30 625,-30 625,-10 605,-10"/>
<text text-anchor="start" x="628.6732" y="-15.4" font-family="sans-serif" font-size="14.00" fill="#000000"> &#160;Providers</text>
<polygon fill="#fb8072" stroke="transparent" points="701,-10 701,-30 721,-30 721,-10 701,-10"/>
<text text-anchor="start" x="724.7258" y="-15.4" font-family="sans-serif" font-size="14.00" fill="#000000"> &#160;Exports</text>
<g id="clust1" class="cluster">
<title>cluster_ComplexFormModule</title>
<polygon fill="none" stroke="#000000" stroke-dasharray="1,5" points="8,-70 8,-195 1078,-195 1078,-70 8,-70"/>
</g>
<g id="clust2" class="cluster">
<title>cluster_ComplexFormModule_declarations</title>
<polygon fill="none" stroke="#000000" points="222,-78 222,-130 1070,-130 1070,-78 222,-78"/>
</g>
<g id="clust11" class="cluster">
<title>cluster_ComplexFormModule_providers</title>
<polygon fill="none" stroke="#000000" points="16,-78 16,-130 214,-130 214,-78 16,-78"/>
</g>
<!-- ComplexFormComponent -->
<g id="node1" class="node">
<title>ComplexFormComponent</title>
<polygon fill="#ffffb3" stroke="#000000" points="1062.4986,-122 899.5014,-122 899.5014,-86 1062.4986,-86 1062.4986,-122"/>
<text text-anchor="middle" x="981" y="-99.8" font-family="Times,serif" font-size="14.00" fill="#000000">ComplexFormComponent</text>
</g>
<!-- ComplexFormModule -->
<g id="node6" class="node">
<title>ComplexFormModule</title>
<polygon fill="#8dd3c7" stroke="#000000" points="632.7162,-187 629.7162,-191 608.7162,-191 605.7162,-187 491.2838,-187 491.2838,-151 632.7162,-151 632.7162,-187"/>
<text text-anchor="middle" x="562" y="-164.8" font-family="Times,serif" font-size="14.00" fill="#000000">ComplexFormModule</text>
</g>
<!-- ComplexFormComponent&#45;&gt;ComplexFormModule -->
<g id="edge1" class="edge">
<title>ComplexFormComponent&#45;&gt;ComplexFormModule</title>
<path fill="none" stroke="#000000" d="M981,-122.2843C981,-143.3211 981,-175 981,-175 981,-175 643.0776,-175 643.0776,-175"/>
<polygon fill="#000000" stroke="#000000" points="643.0777,-171.5001 633.0776,-175 643.0776,-178.5001 643.0777,-171.5001"/>
</g>
<!-- PlayerListComponent -->
<g id="node2" class="node">
<title>PlayerListComponent</title>
<polygon fill="#ffffb3" stroke="#000000" points="881.3739,-122 742.6261,-122 742.6261,-86 881.3739,-86 881.3739,-122"/>
<text text-anchor="middle" x="812" y="-99.8" font-family="Times,serif" font-size="14.00" fill="#000000">PlayerListComponent</text>
</g>
<!-- PlayerListComponent&#45;&gt;ComplexFormModule -->
<g id="edge2" class="edge">
<title>PlayerListComponent&#45;&gt;ComplexFormModule</title>
<path fill="none" stroke="#000000" d="M812,-122.0225C812,-139.3734 812,-163 812,-163 812,-163 642.6375,-163 642.6375,-163"/>
<polygon fill="#000000" stroke="#000000" points="642.6376,-159.5001 632.6375,-163 642.6375,-166.5001 642.6376,-159.5001"/>
</g>
<!-- PlayerListItemComponent -->
<g id="node3" class="node">
<title>PlayerListItemComponent</title>
<polygon fill="#ffffb3" stroke="#000000" points="724.0309,-122 559.9691,-122 559.9691,-86 724.0309,-86 724.0309,-122"/>
<text text-anchor="middle" x="642" y="-99.8" font-family="Times,serif" font-size="14.00" fill="#000000">PlayerListItemComponent</text>
</g>
<!-- PlayerListItemComponent&#45;&gt;ComplexFormModule -->
<g id="edge3" class="edge">
<title>PlayerListItemComponent&#45;&gt;ComplexFormModule</title>
<path fill="none" stroke="#000000" d="M596.1715,-122.1061C596.1715,-122.1061 596.1715,-140.991 596.1715,-140.991"/>
<polygon fill="#000000" stroke="#000000" points="592.6715,-140.9909 596.1715,-150.991 599.6715,-140.991 592.6715,-140.9909"/>
</g>
<!-- ResultComponent -->
<g id="node4" class="node">
<title>ResultComponent</title>
<polygon fill="#ffffb3" stroke="#000000" points="541.6095,-122 424.3905,-122 424.3905,-86 541.6095,-86 541.6095,-122"/>
<text text-anchor="middle" x="483" y="-99.8" font-family="Times,serif" font-size="14.00" fill="#000000">ResultComponent</text>
</g>
<!-- ResultComponent&#45;&gt;ComplexFormModule -->
<g id="edge4" class="edge">
<title>ResultComponent&#45;&gt;ComplexFormModule</title>
<path fill="none" stroke="#000000" d="M516.4734,-122.1061C516.4734,-122.1061 516.4734,-140.991 516.4734,-140.991"/>
<polygon fill="#000000" stroke="#000000" points="512.9734,-140.9909 516.4734,-150.991 519.9734,-140.991 512.9734,-140.9909"/>
</g>
<!-- TeamNameInputComponent -->
<g id="node5" class="node">
<title>TeamNameInputComponent</title>
<polygon fill="#ffffb3" stroke="#000000" points="406.1825,-122 229.8175,-122 229.8175,-86 406.1825,-86 406.1825,-122"/>
<text text-anchor="middle" x="318" y="-99.8" font-family="Times,serif" font-size="14.00" fill="#000000">TeamNameInputComponent</text>
</g>
<!-- TeamNameInputComponent&#45;&gt;ComplexFormModule -->
<g id="edge5" class="edge">
<title>TeamNameInputComponent&#45;&gt;ComplexFormModule</title>
<path fill="none" stroke="#000000" d="M318,-122.0225C318,-139.3734 318,-163 318,-163 318,-163 481.0973,-163 481.0973,-163"/>
<polygon fill="#000000" stroke="#000000" points="481.0974,-166.5001 491.0973,-163 481.0973,-159.5001 481.0974,-166.5001"/>
</g>
<!-- TeamControlService -->
<g id="node7" class="node">
<title>TeamControlService</title>
<ellipse fill="#fdb462" stroke="#000000" cx="115" cy="-104" rx="91.4693" ry="18"/>
<text text-anchor="middle" x="115" y="-99.8" font-family="Times,serif" font-size="14.00" fill="#000000">TeamControlService</text>
</g>
<!-- TeamControlService&#45;&gt;ComplexFormModule -->
<g id="edge6" class="edge">
<title>TeamControlService&#45;&gt;ComplexFormModule</title>
<path fill="none" stroke="#000000" d="M115,-122.2843C115,-143.3211 115,-175 115,-175 115,-175 481.1715,-175 481.1715,-175"/>
<polygon fill="#000000" stroke="#000000" points="481.1716,-178.5001 491.1715,-175 481.1715,-171.5001 481.1716,-178.5001"/>
</g>
</g>
</svg>
