<?xml version="1.0" encoding="UTF-8" standalone="no"?>
<!DOCTYPE svg PUBLIC "-//W3C//DTD SVG 1.1//EN"
 "http://www.w3.org/Graphics/SVG/1.1/DTD/svg11.dtd">
<!-- Generated by graphviz version 2.40.1 (20161225.0304)
 -->
<!-- Title: dependencies Pages: 1 -->
<svg width="4640pt" height="284pt"
 viewBox="0.00 0.00 4640.00 284.00" xmlns="http://www.w3.org/2000/svg" xmlns:xlink="http://www.w3.org/1999/xlink">
<g id="graph0" class="graph" transform="scale(1 1) rotate(0) translate(4 280)">
<title>dependencies</title>
<polygon fill="#ffffff" stroke="transparent" points="-4,4 -4,-280 4636,-280 4636,4 -4,4"/>
<text text-anchor="start" x="2295.0091" y="-42.4" font-family="sans-serif" font-weight="bold" font-size="14.00" fill="#000000">Legend</text>
<polygon fill="#ffffb3" stroke="transparent" points="2082,-10 2082,-30 2102,-30 2102,-10 2082,-10"/>
<text text-anchor="start" x="2105.629" y="-15.4" font-family="sans-serif" font-size="14.00" fill="#000000"> &#160;Declarations</text>
<polygon fill="#8dd3c7" stroke="transparent" points="2195,-10 2195,-30 2215,-30 2215,-10 2195,-10"/>
<text text-anchor="start" x="2218.7251" y="-15.4" font-family="sans-serif" font-size="14.00" fill="#000000"> &#160;Module</text>
<polygon fill="#80b1d3" stroke="transparent" points="2281,-10 2281,-30 2301,-30 2301,-10 2281,-10"/>
<text text-anchor="start" x="2304.7812" y="-15.4" font-family="sans-serif" font-size="14.00" fill="#000000"> &#160;Bootstrap</text>
<polygon fill="#fdb462" stroke="transparent" points="2378,-10 2378,-30 2398,-30 2398,-10 2378,-10"/>
<text text-anchor="start" x="2401.6732" y="-15.4" font-family="sans-serif" font-size="14.00" fill="#000000"> &#160;Providers</text>
<polygon fill="#fb8072" stroke="transparent" points="2474,-10 2474,-30 2494,-30 2494,-10 2474,-10"/>
<text text-anchor="start" x="2497.7258" y="-15.4" font-family="sans-serif" font-size="14.00" fill="#000000"> &#160;Exports</text>
<g id="clust1" class="cluster">
<title>cluster_AppModule</title>
<polygon fill="none" stroke="#000000" stroke-dasharray="1,5" points="8,-70 8,-268 148,-268 148,-70 8,-70"/>
</g>
<g id="clust2" class="cluster">
<title>cluster_AppModule_declarations</title>
<polygon fill="none" stroke="#000000" points="17,-78 17,-130 139,-130 139,-78 17,-78"/>
</g>
<g id="clust6" class="cluster">
<title>cluster_AppModule_bootstrap</title>
<polygon fill="none" stroke="#000000" points="16,-208 16,-260 140,-260 140,-208 16,-208"/>
</g>
<g id="clust8" class="cluster">
<title>cluster_ComplexFormModule</title>
<polygon fill="none" stroke="#000000" stroke-dasharray="1,5" points="156,-70 156,-195 1226,-195 1226,-70 156,-70"/>
</g>
<g id="clust9" class="cluster">
<title>cluster_ComplexFormModule_declarations</title>
<polygon fill="none" stroke="#000000" points="370,-78 370,-130 1218,-130 1218,-78 370,-78"/>
</g>
<g id="clust18" class="cluster">
<title>cluster_ComplexFormModule_providers</title>
<polygon fill="none" stroke="#000000" points="164,-78 164,-130 362,-130 362,-78 164,-78"/>
</g>
<g id="clust19" class="cluster">
<title>cluster_E2eModule</title>
<polygon fill="none" stroke="#000000" stroke-dasharray="1,5" points="1234,-70 1234,-195 1891,-195 1891,-70 1234,-70"/>
</g>
<g id="clust20" class="cluster">
<title>cluster_E2eModule_declarations</title>
<polygon fill="none" stroke="#000000" points="1242,-78 1242,-130 1883,-130 1883,-78 1242,-78"/>
</g>
<g id="clust29" class="cluster">
<title>cluster_I18nModule</title>
<polygon fill="none" stroke="#000000" stroke-dasharray="1,5" points="1899,-70 1899,-195 2208,-195 2208,-70 1899,-70"/>
</g>
<g id="clust30" class="cluster">
<title>cluster_I18nModule_declarations</title>
<polygon fill="none" stroke="#000000" points="1907,-78 1907,-130 2200,-130 2200,-78 1907,-78"/>
</g>
<g id="clust37" class="cluster">
<title>cluster_InputAndOutputModule</title>
<polygon fill="none" stroke="#000000" stroke-dasharray="1,5" points="2216,-70 2216,-195 2913,-195 2913,-70 2216,-70"/>
</g>
<g id="clust38" class="cluster">
<title>cluster_InputAndOutputModule_declarations</title>
<polygon fill="none" stroke="#000000" points="2224,-78 2224,-130 2905,-130 2905,-78 2224,-78"/>
</g>
<g id="clust47" class="cluster">
<title>cluster_RxjsModule</title>
<polygon fill="none" stroke="#000000" stroke-dasharray="1,5" points="2921,-70 2921,-195 3834,-195 3834,-70 2921,-70"/>
</g>
<g id="clust48" class="cluster">
<title>cluster_RxjsModule_declarations</title>
<polygon fill="none" stroke="#000000" points="2929,-78 2929,-130 3826,-130 3826,-78 2929,-78"/>
</g>
<g id="clust58" class="cluster">
<title>cluster_UnitTestModule</title>
<polygon fill="none" stroke="#000000" stroke-dasharray="1,5" points="3842,-70 3842,-195 4434,-195 4434,-70 3842,-70"/>
</g>
<g id="clust59" class="cluster">
<title>cluster_UnitTestModule_declarations</title>
<polygon fill="none" stroke="#000000" points="4162,-78 4162,-130 4426,-130 4426,-78 4162,-78"/>
</g>
<g id="clust65" class="cluster">
<title>cluster_UnitTestModule_providers</title>
<polygon fill="none" stroke="#000000" points="3850,-78 3850,-130 4154,-130 4154,-78 3850,-78"/>
</g>
<g id="clust66" class="cluster">
<title>cluster_WebStorageModule</title>
<polygon fill="none" stroke="#000000" stroke-dasharray="1,5" points="4442,-70 4442,-195 4624,-195 4624,-70 4442,-70"/>
</g>
<g id="clust67" class="cluster">
<title>cluster_WebStorageModule_declarations</title>
<polygon fill="none" stroke="#000000" points="4450,-78 4450,-130 4616,-130 4616,-78 4450,-78"/>
</g>
<!-- AppComponent -->
<g id="node1" class="node">
<title>AppComponent</title>
<polygon fill="#ffffb3" stroke="#000000" points="130.9399,-122 25.0601,-122 25.0601,-86 130.9399,-86 130.9399,-122"/>
<text text-anchor="middle" x="78" y="-99.8" font-family="Times,serif" font-size="14.00" fill="#000000">AppComponent</text>
</g>
<!-- AppModule -->
<g id="node2" class="node">
<title>AppModule</title>
<polygon fill="#8dd3c7" stroke="#000000" points="119.6571,-187 116.6571,-191 95.6571,-191 92.6571,-187 36.3429,-187 36.3429,-151 119.6571,-151 119.6571,-187"/>
<text text-anchor="middle" x="78" y="-164.8" font-family="Times,serif" font-size="14.00" fill="#000000">AppModule</text>
</g>
<!-- AppComponent&#45;&gt;AppModule -->
<g id="edge1" class="edge">
<title>AppComponent&#45;&gt;AppModule</title>
<path fill="none" stroke="#000000" d="M78,-122.1061C78,-122.1061 78,-140.991 78,-140.991"/>
<polygon fill="#000000" stroke="#000000" points="74.5001,-140.9909 78,-150.991 81.5001,-140.991 74.5001,-140.9909"/>
</g>
<!-- AppComponent  -->
<g id="node3" class="node">
<title>AppComponent </title>
<polygon fill="#80b1d3" stroke="#000000" points="132.439,-252 23.561,-252 23.561,-216 132.439,-216 132.439,-252"/>
<text text-anchor="middle" x="78" y="-229.8" font-family="Times,serif" font-size="14.00" fill="#000000">AppComponent </text>
</g>
<!-- AppModule&#45;&gt;AppComponent  -->
<g id="edge2" class="edge">
<title>AppModule&#45;&gt;AppComponent </title>
<path fill="none" stroke="#000000" stroke-dasharray="1,5" d="M78,-187.1061C78,-187.1061 78,-205.991 78,-205.991"/>
<polygon fill="#000000" stroke="#000000" points="74.5001,-205.9909 78,-215.991 81.5001,-205.991 74.5001,-205.9909"/>
</g>
<!-- ComplexFormComponent -->
<g id="node4" class="node">
<title>ComplexFormComponent</title>
<polygon fill="#ffffb3" stroke="#000000" points="1210.4986,-122 1047.5014,-122 1047.5014,-86 1210.4986,-86 1210.4986,-122"/>
<text text-anchor="middle" x="1129" y="-99.8" font-family="Times,serif" font-size="14.00" fill="#000000">ComplexFormComponent</text>
</g>
<!-- ComplexFormModule -->
<g id="node9" class="node">
<title>ComplexFormModule</title>
<polygon fill="#8dd3c7" stroke="#000000" points="780.7162,-187 777.7162,-191 756.7162,-191 753.7162,-187 639.2838,-187 639.2838,-151 780.7162,-151 780.7162,-187"/>
<text text-anchor="middle" x="710" y="-164.8" font-family="Times,serif" font-size="14.00" fill="#000000">ComplexFormModule</text>
</g>
<!-- ComplexFormComponent&#45;&gt;ComplexFormModule -->
<g id="edge3" class="edge">
<title>ComplexFormComponent&#45;&gt;ComplexFormModule</title>
<path fill="none" stroke="#000000" d="M1129,-122.1061C1129,-141.3391 1129,-169 1129,-169 1129,-169 791.0776,-169 791.0776,-169"/>
<polygon fill="#000000" stroke="#000000" points="791.0777,-165.5001 781.0776,-169 791.0776,-172.5001 791.0777,-165.5001"/>
</g>
<!-- PlayerListComponent -->
<g id="node5" class="node">
<title>PlayerListComponent</title>
<polygon fill="#ffffb3" stroke="#000000" points="1029.3739,-122 890.6261,-122 890.6261,-86 1029.3739,-86 1029.3739,-122"/>
<text text-anchor="middle" x="960" y="-99.8" font-family="Times,serif" font-size="14.00" fill="#000000">PlayerListComponent</text>
</g>
<!-- PlayerListComponent&#45;&gt;ComplexFormModule -->
<g id="edge4" class="edge">
<title>PlayerListComponent&#45;&gt;ComplexFormModule</title>
<path fill="none" stroke="#000000" d="M960,-122.027C960,-138.3976 960,-160 960,-160 960,-160 790.6375,-160 790.6375,-160"/>
<polygon fill="#000000" stroke="#000000" points="790.6376,-156.5001 780.6375,-160 790.6375,-163.5001 790.6376,-156.5001"/>
</g>
<!-- PlayerListItemComponent -->
<g id="node6" class="node">
<title>PlayerListItemComponent</title>
<polygon fill="#ffffb3" stroke="#000000" points="872.0309,-122 707.9691,-122 707.9691,-86 872.0309,-86 872.0309,-122"/>
<text text-anchor="middle" x="790" y="-99.8" font-family="Times,serif" font-size="14.00" fill="#000000">PlayerListItemComponent</text>
</g>
<!-- PlayerListItemComponent&#45;&gt;ComplexFormModule -->
<g id="edge5" class="edge">
<title>PlayerListItemComponent&#45;&gt;ComplexFormModule</title>
<path fill="none" stroke="#000000" d="M744.1715,-122.1061C744.1715,-122.1061 744.1715,-140.991 744.1715,-140.991"/>
<polygon fill="#000000" stroke="#000000" points="740.6715,-140.9909 744.1715,-150.991 747.6715,-140.991 740.6715,-140.9909"/>
</g>
<!-- ResultComponent -->
<g id="node7" class="node">
<title>ResultComponent</title>
<polygon fill="#ffffb3" stroke="#000000" points="689.6095,-122 572.3905,-122 572.3905,-86 689.6095,-86 689.6095,-122"/>
<text text-anchor="middle" x="631" y="-99.8" font-family="Times,serif" font-size="14.00" fill="#000000">ResultComponent</text>
</g>
<!-- ResultComponent&#45;&gt;ComplexFormModule -->
<g id="edge6" class="edge">
<title>ResultComponent&#45;&gt;ComplexFormModule</title>
<path fill="none" stroke="#000000" d="M664.4734,-122.1061C664.4734,-122.1061 664.4734,-140.991 664.4734,-140.991"/>
<polygon fill="#000000" stroke="#000000" points="660.9734,-140.9909 664.4734,-150.991 667.9734,-140.991 660.9734,-140.9909"/>
</g>
<!-- TeamNameInputComponent -->
<g id="node8" class="node">
<title>TeamNameInputComponent</title>
<polygon fill="#ffffb3" stroke="#000000" points="554.1825,-122 377.8175,-122 377.8175,-86 554.1825,-86 554.1825,-122"/>
<text text-anchor="middle" x="466" y="-99.8" font-family="Times,serif" font-size="14.00" fill="#000000">TeamNameInputComponent</text>
</g>
<!-- TeamNameInputComponent&#45;&gt;ComplexFormModule -->
<g id="edge7" class="edge">
<title>TeamNameInputComponent&#45;&gt;ComplexFormModule</title>
<path fill="none" stroke="#000000" d="M466,-122.0225C466,-139.3734 466,-163 466,-163 466,-163 629.0973,-163 629.0973,-163"/>
<polygon fill="#000000" stroke="#000000" points="629.0974,-166.5001 639.0973,-163 629.0973,-159.5001 629.0974,-166.5001"/>
</g>
<!-- TeamControlService -->
<g id="node10" class="node">
<title>TeamControlService</title>
<ellipse fill="#fdb462" stroke="#000000" cx="263" cy="-104" rx="91.4693" ry="18"/>
<text text-anchor="middle" x="263" y="-99.8" font-family="Times,serif" font-size="14.00" fill="#000000">TeamControlService</text>
</g>
<!-- TeamControlService&#45;&gt;ComplexFormModule -->
<g id="edge8" class="edge">
<title>TeamControlService&#45;&gt;ComplexFormModule</title>
<path fill="none" stroke="#000000" d="M263,-122.2843C263,-143.3211 263,-175 263,-175 263,-175 629.1715,-175 629.1715,-175"/>
<polygon fill="#000000" stroke="#000000" points="629.1716,-178.5001 639.1715,-175 629.1715,-171.5001 629.1716,-178.5001"/>
</g>
<!-- DeleteDialogComponent -->
<g id="node11" class="node">
<title>DeleteDialogComponent</title>
<polygon fill="#ffffb3" stroke="#000000" points="1874.9664,-122 1719.0336,-122 1719.0336,-86 1874.9664,-86 1874.9664,-122"/>
<text text-anchor="middle" x="1797" y="-99.8" font-family="Times,serif" font-size="14.00" fill="#000000">DeleteDialogComponent</text>
</g>
<!-- E2eModule -->
<g id="node15" class="node">
<title>E2eModule</title>
<polygon fill="#8dd3c7" stroke="#000000" points="1614.8176,-187 1611.8176,-191 1590.8176,-191 1587.8176,-187 1533.1824,-187 1533.1824,-151 1614.8176,-151 1614.8176,-187"/>
<text text-anchor="middle" x="1574" y="-164.8" font-family="Times,serif" font-size="14.00" fill="#000000">E2eModule</text>
</g>
<!-- DeleteDialogComponent&#45;&gt;E2eModule -->
<g id="edge9" class="edge">
<title>DeleteDialogComponent&#45;&gt;E2eModule</title>
<path fill="none" stroke="#000000" d="M1797,-122.1061C1797,-141.3391 1797,-169 1797,-169 1797,-169 1624.9016,-169 1624.9016,-169"/>
<polygon fill="#000000" stroke="#000000" points="1624.9017,-165.5001 1614.9016,-169 1624.9016,-172.5001 1624.9017,-165.5001"/>
</g>
<!-- E2eComponent -->
<g id="node12" class="node">
<title>E2eComponent</title>
<polygon fill="#ffffb3" stroke="#000000" points="1700.5996,-122 1597.4004,-122 1597.4004,-86 1700.5996,-86 1700.5996,-122"/>
<text text-anchor="middle" x="1649" y="-99.8" font-family="Times,serif" font-size="14.00" fill="#000000">E2eComponent</text>
</g>
<!-- E2eComponent&#45;&gt;E2eModule -->
<g id="edge10" class="edge">
<title>E2eComponent&#45;&gt;E2eModule</title>
<path fill="none" stroke="#000000" d="M1606.0543,-122.1061C1606.0543,-122.1061 1606.0543,-140.991 1606.0543,-140.991"/>
<polygon fill="#000000" stroke="#000000" points="1602.5544,-140.9909 1606.0543,-150.991 1609.5544,-140.991 1602.5544,-140.9909"/>
</g>
<!-- MessageInputComponent -->
<g id="node13" class="node">
<title>MessageInputComponent</title>
<polygon fill="#ffffb3" stroke="#000000" points="1579.8613,-122 1420.1387,-122 1420.1387,-86 1579.8613,-86 1579.8613,-122"/>
<text text-anchor="middle" x="1500" y="-99.8" font-family="Times,serif" font-size="14.00" fill="#000000">MessageInputComponent</text>
</g>
<!-- MessageInputComponent&#45;&gt;E2eModule -->
<g id="edge11" class="edge">
<title>MessageInputComponent&#45;&gt;E2eModule</title>
<path fill="none" stroke="#000000" d="M1556.6361,-122.1061C1556.6361,-122.1061 1556.6361,-140.991 1556.6361,-140.991"/>
<polygon fill="#000000" stroke="#000000" points="1553.1361,-140.9909 1556.6361,-150.991 1560.1361,-140.991 1553.1361,-140.9909"/>
</g>
<!-- MessageListComponent -->
<g id="node14" class="node">
<title>MessageListComponent</title>
<polygon fill="#ffffb3" stroke="#000000" points="1402.0884,-122 1249.9116,-122 1249.9116,-86 1402.0884,-86 1402.0884,-122"/>
<text text-anchor="middle" x="1326" y="-99.8" font-family="Times,serif" font-size="14.00" fill="#000000">MessageListComponent</text>
</g>
<!-- MessageListComponent&#45;&gt;E2eModule -->
<g id="edge12" class="edge">
<title>MessageListComponent&#45;&gt;E2eModule</title>
<path fill="none" stroke="#000000" d="M1326,-122.2921C1326,-144.2057 1326,-178 1326,-178 1326,-178 1523.3255,-178 1523.3255,-178"/>
<polygon fill="#000000" stroke="#000000" points="1523.3256,-181.5001 1533.3255,-178 1523.3255,-174.5001 1523.3256,-181.5001"/>
</g>
<!-- ContentCardComponent -->
<g id="node16" class="node">
<title>ContentCardComponent</title>
<polygon fill="#ffffb3" stroke="#000000" points="2192.3766,-122 2039.6234,-122 2039.6234,-86 2192.3766,-86 2192.3766,-122"/>
<text text-anchor="middle" x="2116" y="-99.8" font-family="Times,serif" font-size="14.00" fill="#000000">ContentCardComponent</text>
</g>
<!-- I18nModule -->
<g id="node18" class="node">
<title>I18nModule</title>
<polygon fill="#8dd3c7" stroke="#000000" points="2084.7107,-187 2081.7107,-191 2060.7107,-191 2057.7107,-187 1999.2893,-187 1999.2893,-151 2084.7107,-151 2084.7107,-187"/>
<text text-anchor="middle" x="2042" y="-164.8" font-family="Times,serif" font-size="14.00" fill="#000000">I18nModule</text>
</g>
<!-- ContentCardComponent&#45;&gt;I18nModule -->
<g id="edge13" class="edge">
<title>ContentCardComponent&#45;&gt;I18nModule</title>
<path fill="none" stroke="#000000" d="M2062.0835,-122.1061C2062.0835,-122.1061 2062.0835,-140.991 2062.0835,-140.991"/>
<polygon fill="#000000" stroke="#000000" points="2058.5835,-140.9909 2062.0835,-150.991 2065.5835,-140.991 2058.5835,-140.9909"/>
</g>
<!-- I18nComponent -->
<g id="node17" class="node">
<title>I18nComponent</title>
<polygon fill="#ffffb3" stroke="#000000" points="2021.493,-122 1914.507,-122 1914.507,-86 2021.493,-86 2021.493,-122"/>
<text text-anchor="middle" x="1968" y="-99.8" font-family="Times,serif" font-size="14.00" fill="#000000">I18nComponent</text>
</g>
<!-- I18nComponent&#45;&gt;I18nModule -->
<g id="edge14" class="edge">
<title>I18nComponent&#45;&gt;I18nModule</title>
<path fill="none" stroke="#000000" d="M2010.4457,-122.1061C2010.4457,-122.1061 2010.4457,-140.991 2010.4457,-140.991"/>
<polygon fill="#000000" stroke="#000000" points="2006.9457,-140.9909 2010.4457,-150.991 2013.9457,-140.991 2006.9457,-140.9909"/>
</g>
<!-- MultiInputExampleComponent -->
<g id="node19" class="node">
<title>MultiInputExampleComponent</title>
<polygon fill="#ffffb3" stroke="#000000" points="2896.7631,-122 2705.2369,-122 2705.2369,-86 2896.7631,-86 2896.7631,-122"/>
<text text-anchor="middle" x="2801" y="-99.8" font-family="Times,serif" font-size="14.00" fill="#000000">MultiInputExampleComponent</text>
</g>
<!-- InputAndOutputModule -->
<g id="node23" class="node">
<title>InputAndOutputModule</title>
<polygon fill="#8dd3c7" stroke="#000000" points="2632.0954,-187 2629.0954,-191 2608.0954,-191 2605.0954,-187 2479.9046,-187 2479.9046,-151 2632.0954,-151 2632.0954,-187"/>
<text text-anchor="middle" x="2556" y="-164.8" font-family="Times,serif" font-size="14.00" fill="#000000">InputAndOutputModule</text>
</g>
<!-- MultiInputExampleComponent&#45;&gt;InputAndOutputModule -->
<g id="edge15" class="edge">
<title>MultiInputExampleComponent&#45;&gt;InputAndOutputModule</title>
<path fill="none" stroke="#000000" d="M2801,-122.027C2801,-138.3976 2801,-160 2801,-160 2801,-160 2642.1765,-160 2642.1765,-160"/>
<polygon fill="#000000" stroke="#000000" points="2642.1766,-156.5001 2632.1765,-160 2642.1765,-163.5001 2642.1766,-156.5001"/>
</g>
<!-- ParentComponent -->
<g id="node20" class="node">
<title>ParentComponent</title>
<polygon fill="#ffffb3" stroke="#000000" points="2687.5954,-122 2570.4046,-122 2570.4046,-86 2687.5954,-86 2687.5954,-122"/>
<text text-anchor="middle" x="2629" y="-99.8" font-family="Times,serif" font-size="14.00" fill="#000000">ParentComponent</text>
</g>
<!-- ParentComponent&#45;&gt;InputAndOutputModule -->
<g id="edge16" class="edge">
<title>ParentComponent&#45;&gt;InputAndOutputModule</title>
<path fill="none" stroke="#000000" d="M2601.25,-122.1061C2601.25,-122.1061 2601.25,-140.991 2601.25,-140.991"/>
<polygon fill="#000000" stroke="#000000" points="2597.7501,-140.9909 2601.25,-150.991 2604.7501,-140.991 2597.7501,-140.9909"/>
</g>
<!-- TextInputComponent -->
<g id="node21" class="node">
<title>TextInputComponent</title>
<polygon fill="#ffffb3" stroke="#000000" points="2552.0422,-122 2415.9578,-122 2415.9578,-86 2552.0422,-86 2552.0422,-122"/>
<text text-anchor="middle" x="2484" y="-99.8" font-family="Times,serif" font-size="14.00" fill="#000000">TextInputComponent</text>
</g>
<!-- TextInputComponent&#45;&gt;InputAndOutputModule -->
<g id="edge17" class="edge">
<title>TextInputComponent&#45;&gt;InputAndOutputModule</title>
<path fill="none" stroke="#000000" d="M2516.1115,-122.1061C2516.1115,-122.1061 2516.1115,-140.991 2516.1115,-140.991"/>
<polygon fill="#000000" stroke="#000000" points="2512.6116,-140.9909 2516.1115,-150.991 2519.6116,-140.991 2512.6116,-140.9909"/>
</g>
<!-- UppercaseTextComponent -->
<g id="node22" class="node">
<title>UppercaseTextComponent</title>
<polygon fill="#ffffb3" stroke="#000000" points="2398.0604,-122 2231.9396,-122 2231.9396,-86 2398.0604,-86 2398.0604,-122"/>
<text text-anchor="middle" x="2315" y="-99.8" font-family="Times,serif" font-size="14.00" fill="#000000">UppercaseTextComponent</text>
</g>
<!-- UppercaseTextComponent&#45;&gt;InputAndOutputModule -->
<g id="edge18" class="edge">
<title>UppercaseTextComponent&#45;&gt;InputAndOutputModule</title>
<path fill="none" stroke="#000000" d="M2315,-122.1061C2315,-141.3391 2315,-169 2315,-169 2315,-169 2469.7461,-169 2469.7461,-169"/>
<polygon fill="#000000" stroke="#000000" points="2469.7461,-172.5001 2479.7461,-169 2469.7461,-165.5001 2469.7461,-172.5001"/>
</g>
<!-- CombiningObservablesComponent -->
<g id="node24" class="node">
<title>CombiningObservablesComponent</title>
<polygon fill="#ffffb3" stroke="#000000" points="3817.5321,-122 3604.4679,-122 3604.4679,-86 3817.5321,-86 3817.5321,-122"/>
<text text-anchor="middle" x="3711" y="-99.8" font-family="Times,serif" font-size="14.00" fill="#000000">CombiningObservablesComponent</text>
</g>
<!-- RxjsModule -->
<g id="node29" class="node">
<title>RxjsModule</title>
<polygon fill="#8dd3c7" stroke="#000000" points="3400.7219,-187 3397.7219,-191 3376.7219,-191 3373.7219,-187 3315.2781,-187 3315.2781,-151 3400.7219,-151 3400.7219,-187"/>
<text text-anchor="middle" x="3358" y="-164.8" font-family="Times,serif" font-size="14.00" fill="#000000">RxjsModule</text>
</g>
<!-- CombiningObservablesComponent&#45;&gt;RxjsModule -->
<g id="edge19" class="edge">
<title>CombiningObservablesComponent&#45;&gt;RxjsModule</title>
<path fill="none" stroke="#000000" d="M3711,-122.2921C3711,-144.2057 3711,-178 3711,-178 3711,-178 3410.9318,-178 3410.9318,-178"/>
<polygon fill="#000000" stroke="#000000" points="3410.9319,-174.5001 3400.9318,-178 3410.9318,-181.5001 3410.9319,-174.5001"/>
</g>
<!-- DashboardComponent -->
<g id="node25" class="node">
<title>DashboardComponent</title>
<polygon fill="#ffffb3" stroke="#000000" points="3585.9734,-122 3444.0266,-122 3444.0266,-86 3585.9734,-86 3585.9734,-122"/>
<text text-anchor="middle" x="3515" y="-99.8" font-family="Times,serif" font-size="14.00" fill="#000000">DashboardComponent</text>
</g>
<!-- DashboardComponent&#45;&gt;RxjsModule -->
<g id="edge20" class="edge">
<title>DashboardComponent&#45;&gt;RxjsModule</title>
<path fill="none" stroke="#000000" d="M3515,-122.1061C3515,-141.3391 3515,-169 3515,-169 3515,-169 3410.9009,-169 3410.9009,-169"/>
<polygon fill="#000000" stroke="#000000" points="3410.901,-165.5001 3400.9009,-169 3410.9009,-172.5001 3410.901,-165.5001"/>
</g>
<!-- FibonacciComponent -->
<g id="node26" class="node">
<title>FibonacciComponent</title>
<polygon fill="#ffffb3" stroke="#000000" points="3426.0408,-122 3289.9592,-122 3289.9592,-86 3426.0408,-86 3426.0408,-122"/>
<text text-anchor="middle" x="3358" y="-99.8" font-family="Times,serif" font-size="14.00" fill="#000000">FibonacciComponent</text>
</g>
<!-- FibonacciComponent&#45;&gt;RxjsModule -->
<g id="edge21" class="edge">
<title>FibonacciComponent&#45;&gt;RxjsModule</title>
<path fill="none" stroke="#000000" d="M3358,-122.1061C3358,-122.1061 3358,-140.991 3358,-140.991"/>
<polygon fill="#000000" stroke="#000000" points="3354.5001,-140.9909 3358,-150.991 3361.5001,-140.991 3354.5001,-140.9909"/>
</g>
<!-- SequenceListComponent -->
<g id="node27" class="node">
<title>SequenceListComponent</title>
<polygon fill="#ffffb3" stroke="#000000" points="3271.252,-122 3114.748,-122 3114.748,-86 3271.252,-86 3271.252,-122"/>
<text text-anchor="middle" x="3193" y="-99.8" font-family="Times,serif" font-size="14.00" fill="#000000">SequenceListComponent</text>
</g>
<!-- SequenceListComponent&#45;&gt;RxjsModule -->
<g id="edge22" class="edge">
<title>SequenceListComponent&#45;&gt;RxjsModule</title>
<path fill="none" stroke="#000000" d="M3193,-122.1061C3193,-141.3391 3193,-169 3193,-169 3193,-169 3305.0789,-169 3305.0789,-169"/>
<polygon fill="#000000" stroke="#000000" points="3305.079,-172.5001 3315.0789,-169 3305.0789,-165.5001 3305.079,-172.5001"/>
</g>
<!-- ShoppingCartComponent -->
<g id="node28" class="node">
<title>ShoppingCartComponent</title>
<polygon fill="#ffffb3" stroke="#000000" points="3096.608,-122 2937.392,-122 2937.392,-86 3096.608,-86 3096.608,-122"/>
<text text-anchor="middle" x="3017" y="-99.8" font-family="Times,serif" font-size="14.00" fill="#000000">ShoppingCartComponent</text>
</g>
<!-- ShoppingCartComponent&#45;&gt;RxjsModule -->
<g id="edge23" class="edge">
<title>ShoppingCartComponent&#45;&gt;RxjsModule</title>
<path fill="none" stroke="#000000" d="M3017,-122.2921C3017,-144.2057 3017,-178 3017,-178 3017,-178 3305.1574,-178 3305.1574,-178"/>
<polygon fill="#000000" stroke="#000000" points="3305.1574,-181.5001 3315.1574,-178 3305.1574,-174.5001 3305.1574,-181.5001"/>
</g>
<!-- UnitTestComponent -->
<g id="node30" class="node">
<title>UnitTestComponent</title>
<polygon fill="#ffffb3" stroke="#000000" points="4418.323,-122 4287.677,-122 4287.677,-86 4418.323,-86 4418.323,-122"/>
<text text-anchor="middle" x="4353" y="-99.8" font-family="Times,serif" font-size="14.00" fill="#000000">UnitTestComponent</text>
</g>
<!-- UnitTestModule -->
<g id="node32" class="node">
<title>UnitTestModule</title>
<polygon fill="#8dd3c7" stroke="#000000" points="4207.041,-187 4204.041,-191 4183.041,-191 4180.041,-187 4098.959,-187 4098.959,-151 4207.041,-151 4207.041,-187"/>
<text text-anchor="middle" x="4153" y="-164.8" font-family="Times,serif" font-size="14.00" fill="#000000">UnitTestModule</text>
</g>
<!-- UnitTestComponent&#45;&gt;UnitTestModule -->
<g id="edge24" class="edge">
<title>UnitTestComponent&#45;&gt;UnitTestModule</title>
<path fill="none" stroke="#000000" d="M4353,-122.1061C4353,-141.3391 4353,-169 4353,-169 4353,-169 4217.1229,-169 4217.1229,-169"/>
<polygon fill="#000000" stroke="#000000" points="4217.1229,-165.5001 4207.1229,-169 4217.1228,-172.5001 4217.1229,-165.5001"/>
</g>
<!-- UppercasePipe -->
<g id="node31" class="node">
<title>UppercasePipe</title>
<polygon fill="#ffffb3" stroke="#000000" points="4269.958,-122 4170.042,-122 4170.042,-86 4269.958,-86 4269.958,-122"/>
<text text-anchor="middle" x="4220" y="-99.8" font-family="Times,serif" font-size="14.00" fill="#000000">UppercasePipe</text>
</g>
<!-- UppercasePipe&#45;&gt;UnitTestModule -->
<g id="edge25" class="edge">
<title>UppercasePipe&#45;&gt;UnitTestModule</title>
<path fill="none" stroke="#000000" d="M4188.6455,-122.1061C4188.6455,-122.1061 4188.6455,-140.991 4188.6455,-140.991"/>
<polygon fill="#000000" stroke="#000000" points="4185.1456,-140.9909 4188.6455,-150.991 4192.1456,-140.991 4185.1456,-140.9909"/>
</g>
<!-- EchoService -->
<g id="node33" class="node">
<title>EchoService</title>
<ellipse fill="#fdb462" stroke="#000000" cx="4086" cy="-104" rx="59.6704" ry="18"/>
<text text-anchor="middle" x="4086" y="-99.8" font-family="Times,serif" font-size="14.00" fill="#000000">EchoService</text>
</g>
<!-- EchoService&#45;&gt;UnitTestModule -->
<g id="edge26" class="edge">
<title>EchoService&#45;&gt;UnitTestModule</title>
<path fill="none" stroke="#000000" d="M4122.2825,-118.4256C4122.2825,-118.4256 4122.2825,-140.8939 4122.2825,-140.8939"/>
<polygon fill="#000000" stroke="#000000" points="4118.7826,-140.8938 4122.2825,-150.8939 4125.7826,-140.8939 4118.7826,-140.8938"/>
</g>
<!-- EchoTooService -->
<g id="node34" class="node">
<title>EchoTooService</title>
<ellipse fill="#fdb462" stroke="#000000" cx="3933" cy="-104" rx="75.2829" ry="18"/>
<text text-anchor="middle" x="3933" y="-99.8" font-family="Times,serif" font-size="14.00" fill="#000000">EchoTooService</text>
</g>
<!-- EchoTooService&#45;&gt;UnitTestModule -->
<g id="edge27" class="edge">
<title>EchoTooService&#45;&gt;UnitTestModule</title>
<path fill="none" stroke="#000000" d="M3933,-122.027C3933,-138.3976 3933,-160 3933,-160 3933,-160 4088.9002,-160 4088.9002,-160"/>
<polygon fill="#000000" stroke="#000000" points="4088.9002,-163.5001 4098.9002,-160 4088.9001,-156.5001 4088.9002,-163.5001"/>
</g>
<!-- WebStorageComponent -->
<g id="node35" class="node">
<title>WebStorageComponent</title>
<polygon fill="#ffffb3" stroke="#000000" points="4608.0253,-122 4457.9747,-122 4457.9747,-86 4608.0253,-86 4608.0253,-122"/>
<text text-anchor="middle" x="4533" y="-99.8" font-family="Times,serif" font-size="14.00" fill="#000000">WebStorageComponent</text>
</g>
<!-- WebStorageModule -->
<g id="node36" class="node">
<title>WebStorageModule</title>
<polygon fill="#8dd3c7" stroke="#000000" points="4597.2423,-187 4594.2423,-191 4573.2423,-191 4570.2423,-187 4468.7577,-187 4468.7577,-151 4597.2423,-151 4597.2423,-187"/>
<text text-anchor="middle" x="4533" y="-164.8" font-family="Times,serif" font-size="14.00" fill="#000000">WebStorageModule</text>
</g>
<!-- WebStorageComponent&#45;&gt;WebStorageModule -->
<g id="edge28" class="edge">
<title>WebStorageComponent&#45;&gt;WebStorageModule</title>
<path fill="none" stroke="#000000" d="M4533,-122.1061C4533,-122.1061 4533,-140.991 4533,-140.991"/>
<polygon fill="#000000" stroke="#000000" points="4529.5001,-140.9909 4533,-150.991 4536.5001,-140.991 4529.5001,-140.9909"/>
</g>
</g>
</svg>
