<?xml version="1.0" encoding="UTF-8" standalone="no"?>
<!DOCTYPE svg PUBLIC "-//W3C//DTD SVG 1.1//EN"
 "http://www.w3.org/Graphics/SVG/1.1/DTD/svg11.dtd">
<!-- Generated by graphviz version 2.40.1 (20161225.0304)
 -->
<!-- Title: dependencies Pages: 1 -->
<svg width="937pt" height="211pt"
 viewBox="0.00 0.00 937.00 211.00" xmlns="http://www.w3.org/2000/svg" xmlns:xlink="http://www.w3.org/1999/xlink">
<g id="graph0" class="graph" transform="scale(1 1) rotate(0) translate(4 207)">
<title>dependencies</title>
<polygon fill="#ffffff" stroke="transparent" points="-4,4 -4,-207 933,-207 933,4 -4,4"/>
<text text-anchor="start" x="443.5091" y="-42.4" font-family="sans-serif" font-weight="bold" font-size="14.00" fill="#000000">Legend</text>
<polygon fill="#ffffb3" stroke="transparent" points="230.5,-10 230.5,-30 250.5,-30 250.5,-10 230.5,-10"/>
<text text-anchor="start" x="254.129" y="-15.4" font-family="sans-serif" font-size="14.00" fill="#000000"> &#160;Declarations</text>
<polygon fill="#8dd3c7" stroke="transparent" points="343.5,-10 343.5,-30 363.5,-30 363.5,-10 343.5,-10"/>
<text text-anchor="start" x="367.2251" y="-15.4" font-family="sans-serif" font-size="14.00" fill="#000000"> &#160;Module</text>
<polygon fill="#80b1d3" stroke="transparent" points="429.5,-10 429.5,-30 449.5,-30 449.5,-10 429.5,-10"/>
<text text-anchor="start" x="453.2812" y="-15.4" font-family="sans-serif" font-size="14.00" fill="#000000"> &#160;Bootstrap</text>
<polygon fill="#fdb462" stroke="transparent" points="526.5,-10 526.5,-30 546.5,-30 546.5,-10 526.5,-10"/>
<text text-anchor="start" x="550.1732" y="-15.4" font-family="sans-serif" font-size="14.00" fill="#000000"> &#160;Providers</text>
<polygon fill="#fb8072" stroke="transparent" points="622.5,-10 622.5,-30 642.5,-30 642.5,-10 622.5,-10"/>
<text text-anchor="start" x="646.2258" y="-15.4" font-family="sans-serif" font-size="14.00" fill="#000000"> &#160;Exports</text>
<g id="clust1" class="cluster">
<title>cluster_RxjsModule</title>
<polygon fill="none" stroke="#000000" stroke-dasharray="1,5" points="8,-70 8,-195 921,-195 921,-70 8,-70"/>
</g>
<g id="clust2" class="cluster">
<title>cluster_RxjsModule_declarations</title>
<polygon fill="none" stroke="#000000" points="16,-78 16,-130 913,-130 913,-78 16,-78"/>
</g>
<!-- CombiningObservablesComponent -->
<g id="node1" class="node">
<title>CombiningObservablesComponent</title>
<polygon fill="#ffffb3" stroke="#000000" points="904.5321,-122 691.4679,-122 691.4679,-86 904.5321,-86 904.5321,-122"/>
<text text-anchor="middle" x="798" y="-99.8" font-family="Times,serif" font-size="14.00" fill="#000000">CombiningObservablesComponent</text>
</g>
<!-- RxjsModule -->
<g id="node6" class="node">
<title>RxjsModule</title>
<polygon fill="#8dd3c7" stroke="#000000" points="487.7219,-187 484.7219,-191 463.7219,-191 460.7219,-187 402.2781,-187 402.2781,-151 487.7219,-151 487.7219,-187"/>
<text text-anchor="middle" x="445" y="-164.8" font-family="Times,serif" font-size="14.00" fill="#000000">RxjsModule</text>
</g>
<!-- CombiningObservablesComponent&#45;&gt;RxjsModule -->
<g id="edge1" class="edge">
<title>CombiningObservablesComponent&#45;&gt;RxjsModule</title>
<path fill="none" stroke="#000000" d="M798,-122.2843C798,-143.3211 798,-175 798,-175 798,-175 497.9318,-175 497.9318,-175"/>
<polygon fill="#000000" stroke="#000000" points="497.9319,-171.5001 487.9318,-175 497.9318,-178.5001 497.9319,-171.5001"/>
</g>
<!-- DashboardComponent -->
<g id="node2" class="node">
<title>DashboardComponent</title>
<polygon fill="#ffffb3" stroke="#000000" points="672.9734,-122 531.0266,-122 531.0266,-86 672.9734,-86 672.9734,-122"/>
<text text-anchor="middle" x="602" y="-99.8" font-family="Times,serif" font-size="14.00" fill="#000000">DashboardComponent</text>
</g>
<!-- DashboardComponent&#45;&gt;RxjsModule -->
<g id="edge2" class="edge">
<title>DashboardComponent&#45;&gt;RxjsModule</title>
<path fill="none" stroke="#000000" d="M602,-122.0225C602,-139.3734 602,-163 602,-163 602,-163 497.9009,-163 497.9009,-163"/>
<polygon fill="#000000" stroke="#000000" points="497.901,-159.5001 487.9009,-163 497.9009,-166.5001 497.901,-159.5001"/>
</g>
<!-- FibonacciComponent -->
<g id="node3" class="node">
<title>FibonacciComponent</title>
<polygon fill="#ffffb3" stroke="#000000" points="513.0408,-122 376.9592,-122 376.9592,-86 513.0408,-86 513.0408,-122"/>
<text text-anchor="middle" x="445" y="-99.8" font-family="Times,serif" font-size="14.00" fill="#000000">FibonacciComponent</text>
</g>
<!-- FibonacciComponent&#45;&gt;RxjsModule -->
<g id="edge3" class="edge">
<title>FibonacciComponent&#45;&gt;RxjsModule</title>
<path fill="none" stroke="#000000" d="M445,-122.1061C445,-122.1061 445,-140.991 445,-140.991"/>
<polygon fill="#000000" stroke="#000000" points="441.5001,-140.9909 445,-150.991 448.5001,-140.991 441.5001,-140.9909"/>
</g>
<!-- SequenceListComponent -->
<g id="node4" class="node">
<title>SequenceListComponent</title>
<polygon fill="#ffffb3" stroke="#000000" points="358.252,-122 201.748,-122 201.748,-86 358.252,-86 358.252,-122"/>
<text text-anchor="middle" x="280" y="-99.8" font-family="Times,serif" font-size="14.00" fill="#000000">SequenceListComponent</text>
</g>
<!-- SequenceListComponent&#45;&gt;RxjsModule -->
<g id="edge4" class="edge">
<title>SequenceListComponent&#45;&gt;RxjsModule</title>
<path fill="none" stroke="#000000" d="M280,-122.0225C280,-139.3734 280,-163 280,-163 280,-163 392.0789,-163 392.0789,-163"/>
<polygon fill="#000000" stroke="#000000" points="392.079,-166.5001 402.0789,-163 392.0789,-159.5001 392.079,-166.5001"/>
</g>
<!-- ShoppingCartComponent -->
<g id="node5" class="node">
<title>ShoppingCartComponent</title>
<polygon fill="#ffffb3" stroke="#000000" points="183.608,-122 24.392,-122 24.392,-86 183.608,-86 183.608,-122"/>
<text text-anchor="middle" x="104" y="-99.8" font-family="Times,serif" font-size="14.00" fill="#000000">ShoppingCartComponent</text>
</g>
<!-- ShoppingCartComponent&#45;&gt;RxjsModule -->
<g id="edge5" class="edge">
<title>ShoppingCartComponent&#45;&gt;RxjsModule</title>
<path fill="none" stroke="#000000" d="M104,-122.2843C104,-143.3211 104,-175 104,-175 104,-175 392.1574,-175 392.1574,-175"/>
<polygon fill="#000000" stroke="#000000" points="392.1574,-178.5001 402.1574,-175 392.1574,-171.5001 392.1574,-178.5001"/>
</g>
</g>
</svg>
