<?xml version="1.0" encoding="UTF-8" standalone="no"?>
<!DOCTYPE svg PUBLIC "-//W3C//DTD SVG 1.1//EN"
 "http://www.w3.org/Graphics/SVG/1.1/DTD/svg11.dtd">
<!-- Generated by graphviz version 2.40.1 (20161225.0304)
 -->
<!-- Title: dependencies Pages: 1 -->
<svg width="721pt" height="211pt"
 viewBox="0.00 0.00 721.00 211.00" xmlns="http://www.w3.org/2000/svg" xmlns:xlink="http://www.w3.org/1999/xlink">
<g id="graph0" class="graph" transform="scale(1 1) rotate(0) translate(4 207)">
<title>dependencies</title>
<polygon fill="#ffffff" stroke="transparent" points="-4,4 -4,-207 717,-207 717,4 -4,4"/>
<text text-anchor="start" x="335.5091" y="-42.4" font-family="sans-serif" font-weight="bold" font-size="14.00" fill="#000000">Legend</text>
<polygon fill="#ffffb3" stroke="transparent" points="122.5,-10 122.5,-30 142.5,-30 142.5,-10 122.5,-10"/>
<text text-anchor="start" x="146.129" y="-15.4" font-family="sans-serif" font-size="14.00" fill="#000000"> &#160;Declarations</text>
<polygon fill="#8dd3c7" stroke="transparent" points="235.5,-10 235.5,-30 255.5,-30 255.5,-10 235.5,-10"/>
<text text-anchor="start" x="259.2251" y="-15.4" font-family="sans-serif" font-size="14.00" fill="#000000"> &#160;Module</text>
<polygon fill="#80b1d3" stroke="transparent" points="321.5,-10 321.5,-30 341.5,-30 341.5,-10 321.5,-10"/>
<text text-anchor="start" x="345.2812" y="-15.4" font-family="sans-serif" font-size="14.00" fill="#000000"> &#160;Bootstrap</text>
<polygon fill="#fdb462" stroke="transparent" points="418.5,-10 418.5,-30 438.5,-30 438.5,-10 418.5,-10"/>
<text text-anchor="start" x="442.1732" y="-15.4" font-family="sans-serif" font-size="14.00" fill="#000000"> &#160;Providers</text>
<polygon fill="#fb8072" stroke="transparent" points="514.5,-10 514.5,-30 534.5,-30 534.5,-10 514.5,-10"/>
<text text-anchor="start" x="538.2258" y="-15.4" font-family="sans-serif" font-size="14.00" fill="#000000"> &#160;Exports</text>
<g id="clust1" class="cluster">
<title>cluster_InputAndOutputModule</title>
<polygon fill="none" stroke="#000000" stroke-dasharray="1,5" points="8,-70 8,-195 705,-195 705,-70 8,-70"/>
</g>
<g id="clust2" class="cluster">
<title>cluster_InputAndOutputModule_declarations</title>
<polygon fill="none" stroke="#000000" points="16,-78 16,-130 697,-130 697,-78 16,-78"/>
</g>
<!-- MultiInputExampleComponent -->
<g id="node1" class="node">
<title>MultiInputExampleComponent</title>
<polygon fill="#ffffb3" stroke="#000000" points="688.7631,-122 497.2369,-122 497.2369,-86 688.7631,-86 688.7631,-122"/>
<text text-anchor="middle" x="593" y="-99.8" font-family="Times,serif" font-size="14.00" fill="#000000">MultiInputExampleComponent</text>
</g>
<!-- InputAndOutputModule -->
<g id="node5" class="node">
<title>InputAndOutputModule</title>
<polygon fill="#8dd3c7" stroke="#000000" points="424.0954,-187 421.0954,-191 400.0954,-191 397.0954,-187 271.9046,-187 271.9046,-151 424.0954,-151 424.0954,-187"/>
<text text-anchor="middle" x="348" y="-164.8" font-family="Times,serif" font-size="14.00" fill="#000000">InputAndOutputModule</text>
</g>
<!-- MultiInputExampleComponent&#45;&gt;InputAndOutputModule -->
<g id="edge1" class="edge">
<title>MultiInputExampleComponent&#45;&gt;InputAndOutputModule</title>
<path fill="none" stroke="#000000" d="M593,-122.1061C593,-141.3391 593,-169 593,-169 593,-169 434.1765,-169 434.1765,-169"/>
<polygon fill="#000000" stroke="#000000" points="434.1766,-165.5001 424.1765,-169 434.1765,-172.5001 434.1766,-165.5001"/>
</g>
<!-- ParentComponent -->
<g id="node2" class="node">
<title>ParentComponent</title>
<polygon fill="#ffffb3" stroke="#000000" points="479.5954,-122 362.4046,-122 362.4046,-86 479.5954,-86 479.5954,-122"/>
<text text-anchor="middle" x="421" y="-99.8" font-family="Times,serif" font-size="14.00" fill="#000000">ParentComponent</text>
</g>
<!-- ParentComponent&#45;&gt;InputAndOutputModule -->
<g id="edge2" class="edge">
<title>ParentComponent&#45;&gt;InputAndOutputModule</title>
<path fill="none" stroke="#000000" d="M393.25,-122.1061C393.25,-122.1061 393.25,-140.991 393.25,-140.991"/>
<polygon fill="#000000" stroke="#000000" points="389.7501,-140.9909 393.25,-150.991 396.7501,-140.991 389.7501,-140.9909"/>
</g>
<!-- TextInputComponent -->
<g id="node3" class="node">
<title>TextInputComponent</title>
<polygon fill="#ffffb3" stroke="#000000" points="344.0422,-122 207.9578,-122 207.9578,-86 344.0422,-86 344.0422,-122"/>
<text text-anchor="middle" x="276" y="-99.8" font-family="Times,serif" font-size="14.00" fill="#000000">TextInputComponent</text>
</g>
<!-- TextInputComponent&#45;&gt;InputAndOutputModule -->
<g id="edge3" class="edge">
<title>TextInputComponent&#45;&gt;InputAndOutputModule</title>
<path fill="none" stroke="#000000" d="M308.1115,-122.1061C308.1115,-122.1061 308.1115,-140.991 308.1115,-140.991"/>
<polygon fill="#000000" stroke="#000000" points="304.6116,-140.9909 308.1115,-150.991 311.6116,-140.991 304.6116,-140.9909"/>
</g>
<!-- UppercaseTextComponent -->
<g id="node4" class="node">
<title>UppercaseTextComponent</title>
<polygon fill="#ffffb3" stroke="#000000" points="190.0604,-122 23.9396,-122 23.9396,-86 190.0604,-86 190.0604,-122"/>
<text text-anchor="middle" x="107" y="-99.8" font-family="Times,serif" font-size="14.00" fill="#000000">UppercaseTextComponent</text>
</g>
<!-- UppercaseTextComponent&#45;&gt;InputAndOutputModule -->
<g id="edge4" class="edge">
<title>UppercaseTextComponent&#45;&gt;InputAndOutputModule</title>
<path fill="none" stroke="#000000" d="M107,-122.1061C107,-141.3391 107,-169 107,-169 107,-169 261.7461,-169 261.7461,-169"/>
<polygon fill="#000000" stroke="#000000" points="261.7461,-172.5001 271.7461,-169 261.7461,-165.5001 261.7461,-172.5001"/>
</g>
</g>
</svg>
