<?xml version="1.0" encoding="UTF-8" standalone="no"?>
<!DOCTYPE svg PUBLIC "-//W3C//DTD SVG 1.1//EN"
 "http://www.w3.org/Graphics/SVG/1.1/DTD/svg11.dtd">
<!-- Generated by graphviz version 2.40.1 (20161225.0304)
 -->
<!-- Title: dependencies Pages: 1 -->
<svg width="681pt" height="211pt"
 viewBox="0.00 0.00 681.00 211.00" xmlns="http://www.w3.org/2000/svg" xmlns:xlink="http://www.w3.org/1999/xlink">
<g id="graph0" class="graph" transform="scale(1 1) rotate(0) translate(4 207)">
<title>dependencies</title>
<polygon fill="#ffffff" stroke="transparent" points="-4,4 -4,-207 677,-207 677,4 -4,4"/>
<text text-anchor="start" x="315.5091" y="-42.4" font-family="sans-serif" font-weight="bold" font-size="14.00" fill="#000000">Legend</text>
<polygon fill="#ffffb3" stroke="transparent" points="102.5,-10 102.5,-30 122.5,-30 122.5,-10 102.5,-10"/>
<text text-anchor="start" x="126.129" y="-15.4" font-family="sans-serif" font-size="14.00" fill="#000000"> &#160;Declarations</text>
<polygon fill="#8dd3c7" stroke="transparent" points="215.5,-10 215.5,-30 235.5,-30 235.5,-10 215.5,-10"/>
<text text-anchor="start" x="239.2251" y="-15.4" font-family="sans-serif" font-size="14.00" fill="#000000"> &#160;Module</text>
<polygon fill="#80b1d3" stroke="transparent" points="301.5,-10 301.5,-30 321.5,-30 321.5,-10 301.5,-10"/>
<text text-anchor="start" x="325.2812" y="-15.4" font-family="sans-serif" font-size="14.00" fill="#000000"> &#160;Bootstrap</text>
<polygon fill="#fdb462" stroke="transparent" points="398.5,-10 398.5,-30 418.5,-30 418.5,-10 398.5,-10"/>
<text text-anchor="start" x="422.1732" y="-15.4" font-family="sans-serif" font-size="14.00" fill="#000000"> &#160;Providers</text>
<polygon fill="#fb8072" stroke="transparent" points="494.5,-10 494.5,-30 514.5,-30 514.5,-10 494.5,-10"/>
<text text-anchor="start" x="518.2258" y="-15.4" font-family="sans-serif" font-size="14.00" fill="#000000"> &#160;Exports</text>
<g id="clust1" class="cluster">
<title>cluster_E2eModule</title>
<polygon fill="none" stroke="#000000" stroke-dasharray="1,5" points="8,-70 8,-195 665,-195 665,-70 8,-70"/>
</g>
<g id="clust2" class="cluster">
<title>cluster_E2eModule_declarations</title>
<polygon fill="none" stroke="#000000" points="16,-78 16,-130 657,-130 657,-78 16,-78"/>
</g>
<!-- DeleteDialogComponent -->
<g id="node1" class="node">
<title>DeleteDialogComponent</title>
<polygon fill="#ffffb3" stroke="#000000" points="648.9664,-122 493.0336,-122 493.0336,-86 648.9664,-86 648.9664,-122"/>
<text text-anchor="middle" x="571" y="-99.8" font-family="Times,serif" font-size="14.00" fill="#000000">DeleteDialogComponent</text>
</g>
<!-- E2eModule -->
<g id="node5" class="node">
<title>E2eModule</title>
<polygon fill="#8dd3c7" stroke="#000000" points="388.8176,-187 385.8176,-191 364.8176,-191 361.8176,-187 307.1824,-187 307.1824,-151 388.8176,-151 388.8176,-187"/>
<text text-anchor="middle" x="348" y="-164.8" font-family="Times,serif" font-size="14.00" fill="#000000">E2eModule</text>
</g>
<!-- DeleteDialogComponent&#45;&gt;E2eModule -->
<g id="edge1" class="edge">
<title>DeleteDialogComponent&#45;&gt;E2eModule</title>
<path fill="none" stroke="#000000" d="M571,-122.1061C571,-141.3391 571,-169 571,-169 571,-169 398.9016,-169 398.9016,-169"/>
<polygon fill="#000000" stroke="#000000" points="398.9017,-165.5001 388.9016,-169 398.9016,-172.5001 398.9017,-165.5001"/>
</g>
<!-- E2eComponent -->
<g id="node2" class="node">
<title>E2eComponent</title>
<polygon fill="#ffffb3" stroke="#000000" points="474.5996,-122 371.4004,-122 371.4004,-86 474.5996,-86 474.5996,-122"/>
<text text-anchor="middle" x="423" y="-99.8" font-family="Times,serif" font-size="14.00" fill="#000000">E2eComponent</text>
</g>
<!-- E2eComponent&#45;&gt;E2eModule -->
<g id="edge2" class="edge">
<title>E2eComponent&#45;&gt;E2eModule</title>
<path fill="none" stroke="#000000" d="M380.0544,-122.1061C380.0544,-122.1061 380.0544,-140.991 380.0544,-140.991"/>
<polygon fill="#000000" stroke="#000000" points="376.5544,-140.9909 380.0544,-150.991 383.5544,-140.991 376.5544,-140.9909"/>
</g>
<!-- MessageInputComponent -->
<g id="node3" class="node">
<title>MessageInputComponent</title>
<polygon fill="#ffffb3" stroke="#000000" points="353.8613,-122 194.1387,-122 194.1387,-86 353.8613,-86 353.8613,-122"/>
<text text-anchor="middle" x="274" y="-99.8" font-family="Times,serif" font-size="14.00" fill="#000000">MessageInputComponent</text>
</g>
<!-- MessageInputComponent&#45;&gt;E2eModule -->
<g id="edge3" class="edge">
<title>MessageInputComponent&#45;&gt;E2eModule</title>
<path fill="none" stroke="#000000" d="M330.6361,-122.1061C330.6361,-122.1061 330.6361,-140.991 330.6361,-140.991"/>
<polygon fill="#000000" stroke="#000000" points="327.1361,-140.9909 330.6361,-150.991 334.1361,-140.991 327.1361,-140.9909"/>
</g>
<!-- MessageListComponent -->
<g id="node4" class="node">
<title>MessageListComponent</title>
<polygon fill="#ffffb3" stroke="#000000" points="176.0884,-122 23.9116,-122 23.9116,-86 176.0884,-86 176.0884,-122"/>
<text text-anchor="middle" x="100" y="-99.8" font-family="Times,serif" font-size="14.00" fill="#000000">MessageListComponent</text>
</g>
<!-- MessageListComponent&#45;&gt;E2eModule -->
<g id="edge4" class="edge">
<title>MessageListComponent&#45;&gt;E2eModule</title>
<path fill="none" stroke="#000000" d="M100,-122.1061C100,-141.3391 100,-169 100,-169 100,-169 297.3255,-169 297.3255,-169"/>
<polygon fill="#000000" stroke="#000000" points="297.3256,-172.5001 307.3255,-169 297.3255,-165.5001 297.3256,-172.5001"/>
</g>
</g>
</svg>
