<?xml version="1.0" encoding="UTF-8" standalone="no"?>
<!DOCTYPE svg PUBLIC "-//W3C//DTD SVG 1.1//EN"
 "http://www.w3.org/Graphics/SVG/1.1/DTD/svg11.dtd">
<!-- Generated by graphviz version 2.40.1 (20161225.0304)
 -->
<!-- Title: dependencies Pages: 1 -->
<svg width="504pt" height="211pt"
 viewBox="0.00 0.00 504.00 211.00" xmlns="http://www.w3.org/2000/svg" xmlns:xlink="http://www.w3.org/1999/xlink">
<g id="graph0" class="graph" transform="scale(1 1) rotate(0) translate(4 207)">
<title>dependencies</title>
<polygon fill="#ffffff" stroke="transparent" points="-4,4 -4,-207 500,-207 500,4 -4,4"/>
<text text-anchor="start" x="227.0091" y="-42.4" font-family="sans-serif" font-weight="bold" font-size="14.00" fill="#000000">Legend</text>
<polygon fill="#ffffb3" stroke="transparent" points="14,-10 14,-30 34,-30 34,-10 14,-10"/>
<text text-anchor="start" x="37.629" y="-15.4" font-family="sans-serif" font-size="14.00" fill="#000000"> &#160;Declarations</text>
<polygon fill="#8dd3c7" stroke="transparent" points="127,-10 127,-30 147,-30 147,-10 127,-10"/>
<text text-anchor="start" x="150.7251" y="-15.4" font-family="sans-serif" font-size="14.00" fill="#000000"> &#160;Module</text>
<polygon fill="#80b1d3" stroke="transparent" points="213,-10 213,-30 233,-30 233,-10 213,-10"/>
<text text-anchor="start" x="236.7812" y="-15.4" font-family="sans-serif" font-size="14.00" fill="#000000"> &#160;Bootstrap</text>
<polygon fill="#fdb462" stroke="transparent" points="310,-10 310,-30 330,-30 330,-10 310,-10"/>
<text text-anchor="start" x="333.6732" y="-15.4" font-family="sans-serif" font-size="14.00" fill="#000000"> &#160;Providers</text>
<polygon fill="#fb8072" stroke="transparent" points="406,-10 406,-30 426,-30 426,-10 406,-10"/>
<text text-anchor="start" x="429.7258" y="-15.4" font-family="sans-serif" font-size="14.00" fill="#000000"> &#160;Exports</text>
<g id="clust1" class="cluster">
<title>cluster_I18nModule</title>
<polygon fill="none" stroke="#000000" stroke-dasharray="1,5" points="93.5,-70 93.5,-195 402.5,-195 402.5,-70 93.5,-70"/>
</g>
<g id="clust2" class="cluster">
<title>cluster_I18nModule_declarations</title>
<polygon fill="none" stroke="#000000" points="101.5,-78 101.5,-130 394.5,-130 394.5,-78 101.5,-78"/>
</g>
<!-- ContentCardComponent -->
<g id="node1" class="node">
<title>ContentCardComponent</title>
<polygon fill="#ffffb3" stroke="#000000" points="386.8766,-122 234.1234,-122 234.1234,-86 386.8766,-86 386.8766,-122"/>
<text text-anchor="middle" x="310.5" y="-99.8" font-family="Times,serif" font-size="14.00" fill="#000000">ContentCardComponent</text>
</g>
<!-- I18nModule -->
<g id="node3" class="node">
<title>I18nModule</title>
<polygon fill="#8dd3c7" stroke="#000000" points="279.2107,-187 276.2107,-191 255.2107,-191 252.2107,-187 193.7893,-187 193.7893,-151 279.2107,-151 279.2107,-187"/>
<text text-anchor="middle" x="236.5" y="-164.8" font-family="Times,serif" font-size="14.00" fill="#000000">I18nModule</text>
</g>
<!-- ContentCardComponent&#45;&gt;I18nModule -->
<g id="edge1" class="edge">
<title>ContentCardComponent&#45;&gt;I18nModule</title>
<path fill="none" stroke="#000000" d="M256.5834,-122.1061C256.5834,-122.1061 256.5834,-140.991 256.5834,-140.991"/>
<polygon fill="#000000" stroke="#000000" points="253.0835,-140.9909 256.5834,-150.991 260.0835,-140.991 253.0835,-140.9909"/>
</g>
<!-- I18nComponent -->
<g id="node2" class="node">
<title>I18nComponent</title>
<polygon fill="#ffffb3" stroke="#000000" points="215.993,-122 109.007,-122 109.007,-86 215.993,-86 215.993,-122"/>
<text text-anchor="middle" x="162.5" y="-99.8" font-family="Times,serif" font-size="14.00" fill="#000000">I18nComponent</text>
</g>
<!-- I18nComponent&#45;&gt;I18nModule -->
<g id="edge2" class="edge">
<title>I18nComponent&#45;&gt;I18nModule</title>
<path fill="none" stroke="#000000" d="M204.9457,-122.1061C204.9457,-122.1061 204.9457,-140.991 204.9457,-140.991"/>
<polygon fill="#000000" stroke="#000000" points="201.4457,-140.9909 204.9457,-150.991 208.4457,-140.991 201.4457,-140.9909"/>
</g>
</g>
</svg>
